<svg xmlns="http://www.w3.org/2000/svg" version="1.1" xmlns:xlink="http://www.w3.org/1999/xlink" xmlns:svgjs="http://svgjs.dev/svgjs" width="100%" height="100%" viewBox="0 0 1000 600"><rect width="1000" height="600" x="0" y="0" fill="#209cee"/><g><circle r="166.66666666666666" cx="406.958750406901" cy="429.18079599025634" fill="#00c9fc" transform="matrix(0.5202006845415195,0,0,0.5202006845415195,0,76.7398760678623)"/><path d="M359.4756443139777 354.1807478289655L359.4756443139777 372.44577032513007L275.04468248121674 372.44577032513007L275.04468248121674 419.95870466155833L351.745839041908 419.95870466155833L351.745839041908 438.2237271577229L275.04468248121674 438.2237271577229L275.04468248121674 485.91573034215276L359.4756443139777 485.91573034215276L359.4756443139777 504.1807528383174L255.46648843304027 504.1807528383174L255.46648843304027 354.1807478289655L359.4756443139777 354.1807478289655ZM475.72117147502536 482.48357742212187L527.9495854754962 354.1807478289655L558.4509792517711 354.1807478289655L558.4509792517711 504.1807528383174L538.9026300115949 504.1807528383174L538.9026300115949 374.8333549651516L538.4848026995911 374.8333549651516L485.6296477311147 504.1807528383174L465.4247127149326 504.1807528383174L412.3307992824541 374.8333549651516L412.1218856264522 374.8333549651516L412.1218856264522 504.1807528383174L392.57353638627603 504.1807528383174L392.57353638627603 354.1807478289655L423.0749301625509 354.1807478289655L475.3033441630216 482.48357742212187L475.72117147502536 482.48357742212187Z " fill="#ffffff" transform="matrix(0.5202006845415195,0,0,0.5202006845415195,0,76.7398760678623)"/><path d="M755.0724556746001 360.6559739851418L755.0724556746001 377.8857028760237L675.4271892819453 377.8857028760237L675.4271892819453 422.70552051374244L747.780789362936 422.70552051374244L747.780789362936 439.9352494046243L675.4271892819453 439.9352494046243L675.4271892819453 484.92398595303797L755.0724556746001 484.92398595303797L755.0724556746001 502.15371484391983L656.9587217126341 502.15371484391983L656.9587217126341 360.6559739851418L755.0724556746001 360.6559739851418ZM865.1512791441228 424.11317810286675L864.3348377424308 424.11317810286675Q849.3292078423653 413.9780434611716 831.7897942818761 413.9780434611716Q814.2785338731694 413.9780434611716 804.3404712939516 424.00056549573685Q794.4024087147338 434.05124068208454 794.4024087147338 450.4645281712743Q794.4024087147338 466.877815660464 804.3404712939516 476.92849084681177Q814.2785338731694 486.951012881377 831.7897942818761 486.951012881377Q849.3292078423653 486.951012881377 864.3348377424308 476.8158782396818L864.3348377424308 476.8158782396818L865.1512791441228 476.8158782396818L865.1512791441228 494.24267919304106Q848.3156943781959 504.18074177225884 830.0724520231445 504.18074177225884L830.0724520231445 504.18074177225884Q807.5780837489376 504.18074177225884 791.7560124471802 489.59740914893075Q775.9620942972051 474.9859233738202 775.9620942972051 450.4645281712743Q775.9620942972051 425.9431329687284 791.7560124471802 411.33164719361787Q807.5780837489376 396.7483145702897 830.0724520231445 396.7483145702897L830.0724520231445 396.7483145702897Q848.3156943781959 396.7483145702897 865.1512791441228 406.68637714950756L865.1512791441228 406.68637714950756L865.1512791441228 424.11317810286675ZM884.999251150776 450.4645281712743Q884.999251150776 426.3372770936832 899.1884396491492 411.55687240787773Q913.3776281475225 396.7483145702897 936.8010504305514 396.7483145702897Q960.2244727135803 396.7483145702897 974.498120667301 411.55687240787773Q988.7999217728043 426.3372770936832 988.7999217728043 450.4645281712743Q988.7999217728043 474.59177924886535 974.498120667301 489.37218393467083Q960.2244727135803 504.18074177225884 936.8010504305514 504.18074177225884Q913.3776281475225 504.18074177225884 899.1884396491492 489.37218393467083Q884.999251150776 474.59177924886535 884.999251150776 450.4645281712743ZM913.4902407546524 478.1390763734587Q923.5127627892177 487.3451570063318 936.9136630376813 487.3451570063318Q950.2864101343625 487.3451570063318 960.3089321689278 478.1390763734587Q970.3596073552754 468.90484258880304 970.3596073552754 450.35191556414435Q970.3596073552754 431.82714169126814 960.3089321689278 422.70552051374244Q950.2864101343625 413.58389933621675 936.9136630376813 413.58389933621675Q923.5127627892177 413.58389933621675 913.4902407546524 422.70552051374244Q903.4677187200872 431.82714169126814 903.4677187200872 450.35191556414435Q903.4677187200872 468.90484258880304 913.4902407546524 478.1390763734587ZM1096.6264930997281 481.68637349805203L1145.8945087190798 360.6559739851418L1174.6670298407812 360.6559739851418L1174.6670298407812 502.15371484391983L1156.2267154232522 502.15371484391983L1156.2267154232522 380.1379550186226L1155.8325712982976 380.1379550186226L1105.9451863397312 502.15371484391983L1086.9136557347701 502.15371484391983L1036.8291987137263 380.1379550186226L1036.632126651249 380.1379550186226L1036.632126651249 502.15371484391983L1018.1918122337203 502.15371484391983L1018.1918122337203 360.6559739851418L1046.9643333554218 360.6559739851418L1096.2323489747732 481.68637349805203L1096.6264930997281 481.68637349805203ZM1212.1670280150533 421.0726377103582L1212.1670280150533 404.4622781586911Q1229.8190541826725 396.7483145702897 1249.976710858933 396.7483145702897Q1270.1343675351934 396.7483145702897 1280.8888715161033 408.5163320153692Q1291.6433754970133 420.2561963086661 1291.6433754970133 436.66948379785583L1291.6433754970133 436.66948379785583L1291.6433754970133 502.15371484391983L1275.427160070301 502.15371484391983L1273.174907927702 489.17511187219344L1272.5836917402696 489.17511187219344Q1257.9722059651592 504.18074177225884 1235.0836935659977 504.18074177225884L1235.0836935659977 504.18074177225884Q1221.2886491925792 504.18074177225884 1211.6602712829686 495.8755619964253Q1202.0318933733581 487.5703822205917 1202.0318933733581 473.1559685079585Q1202.0318933733581 458.76970794710786 1213.884370273785 449.8451588320596Q1225.7650003259944 440.9487628687938 1248.653512725156 440.9487628687938L1248.653512725156 440.9487628687938L1273.174907927702 440.9487628687938L1273.174907927702 439.3158800654096Q1273.174907927702 425.9431329687284 1266.5870704106 420.05912424618873Q1259.9992328934982 414.17511552364897 1243.7830174667859 414.17511552364897Q1227.5668020400735 414.17511552364897 1213.3776135417004 421.0726377103582L1213.3776135417004 421.0726377103582L1212.1670280150533 421.0726377103582ZM1273.174907927702 472.7618243830037L1273.174907927702 472.7618243830037L1273.174907927702 455.7291675545993L1251.1028369302326 455.7291675545993Q1220.4722077908868 455.7291675545993 1220.4722077908868 471.86092352596415Q1220.4722077908868 487.9645263455465 1241.9812157527067 487.9645263455465L1241.9812157527067 487.9645263455465Q1250.8776117159723 487.9645263455465 1259.2109446435886 483.6007878192611Q1267.516124419422 479.23704929297566 1273.174907927702 472.7618243830037ZM1379.8190468797613 396.7483145702897L1379.8190468797613 396.7483145702897L1381.423776531363 396.7483145702897L1381.423776531363 414.3721875861264L1379.8190468797613 414.3721875861264Q1367.8539573722046 414.3721875861264 1357.521750668032 419.0456107820192Q1347.161390812077 423.719033977912 1341.3055352413196 432.0242137537455L1341.3055352413196 432.0242137537455L1341.3055352413196 502.15371484391983L1322.8370676720085 502.15371484391983L1322.8370676720085 398.7753414986288L1339.0532830987206 398.7753414986288L1341.3055352413196 411.7539444703551L1341.3055352413196 414.79448486286367L1341.6996793662745 414.79448486286367Q1356.2830119896025 396.7483145702897 1379.8190468797613 396.7483145702897ZM1489.8697171975016 398.7753414986288L1447.9215210415966 440.3293935295791L1494.5431403933947 502.15371484391983L1471.823546904928 502.15371484391983L1435.337062194825 453.3079965013054L1434.7458460073929 453.3079965013054L1419.7402161073276 468.31362640137087L1419.7402161073276 502.15371484391983L1401.2999016897986 502.15371484391983L1401.2999016897986 354.1807490751699L1419.7402161073276 354.1807490751699L1419.7402161073276 444.777591511212L1420.3595854465423 444.777591511212L1465.1512499324783 398.7753414986288L1489.8697171975016 398.7753414986288ZM1602.7920089970557 450.4645281712743L1602.7920089970557 450.4645281712743L1602.7920089970557 456.93975308124624L1524.5262470417426 456.93975308124624Q1526.159129845127 471.1289415796195 1535.0836789601751 479.03997723049827Q1544.0082280752238 486.951012881377 1562.138857823145 486.951012881377Q1580.2694875710663 486.951012881377 1595.6974147478693 476.8158782396818L1595.6974147478693 476.8158782396818L1596.7109282120384 476.8158782396818L1596.7109282120384 494.66497646977837Q1579.6782713836342 504.18074177225884 1556.6771463773428 504.18074177225884Q1533.6478682192685 504.18074177225884 1519.7683643905027 490.10416588101555Q1505.8888605617365 475.9994368379897 1505.8888605617365 451.9847983675286Q1505.8888605617365 427.97015989706745 1518.2480941942483 412.34516065778735Q1530.60732782676 396.7483145702897 1554.3404347793962 396.7483145702897Q1578.04538858025 396.7483145702897 1590.4046222127615 412.34516065778735Q1602.7920089970557 427.97015989706745 1602.7920089970557 450.4645281712743ZM1524.5262470417426 441.9622763329633L1524.5262470417426 441.9622763329633L1584.3235414277444 441.9622763329633Q1583.535253177835 427.35079055785275 1574.4980914556565 419.8620521837113Q1565.489082885261 412.34516065778735 1554.3404347793962 412.34516065778735Q1543.1917866735314 412.34516065778735 1534.2672375584832 419.8620521837113Q1525.342688443435 427.35079055785275 1524.5262470417426 441.9622763329633ZM1682.0431312647554 398.7753414986288L1682.0431312647554 414.5974128003863L1652.6512408038395 414.5974128003863L1652.6512408038395 475.8023647755123Q1652.6512408038395 484.3046166138232 1657.29651084795 486.3316435421623L1657.29651084795 486.3316435421623Q1661.1534926421507 487.9645263455465 1667.2345734271676 487.9645263455465Q1673.3156542121849 487.9645263455465 1680.6073205238488 484.7269138905606L1680.6073205238488 484.7269138905606L1682.0431312647554 484.7269138905606L1682.0431312647554 499.732543790626Q1673.512726274662 504.18074177225884 1663.7998889097044 504.18074177225884L1663.7998889097044 504.18074177225884Q1634.210926386311 504.18074177225884 1634.210926386311 477.4352475788965L1634.210926386311 477.4352475788965L1634.210926386311 414.5974128003863L1614.9541705670897 414.5974128003863L1614.9541705670897 413.3586741219569L1652.6512408038395 376.4780452868994L1652.6512408038395 398.7753414986288L1682.0431312647554 398.7753414986288Z " fill="#ffffff" transform="matrix(0.5202006845415195,0,0,0.5202006845415195,0,76.7398760678623)"/></g></svg>